<svg viewBox="0 0 40 40" fill="none" width="40" height="40" xmlns="http://www.w3.org/2000/svg" xmlns:xlink="http://www.w3.org/1999/xlink">
  <path fill="#4d5ae5" d="M40 20c0 5.5228-2.2386 10.5228-5.8579 14.1421S25.5228 40 20 40 9.4772 37.7614 5.8579 34.1421C2.2386 30.5228 0 25.5228 0 20S2.2386 9.4772 5.8579 5.8579C9.4772 2.2386 14.4772 0 20 0s10.5228 2.2386 14.1421 5.8579C37.7614 9.4772 40 14.4772 40 20z" />
  <g clip-path="url(#clip0_1059775_233)">
    <path fill="#f4f4fd" d="M22.6647 14.6567h1.4607v-2.544C23.8734 12.078 23.0067 12 21.9974 12c-2.106 0-3.5487 1.3247-3.5487 3.7593V18h-2.324v2.844h2.324V28h2.8493v-7.1553h2.23l0.354-2.844h-2.5846v-1.9594c6e-4-0.822 0.222-1.3846 1.3673-1.3846z" />
  </g>
  <defs>
    <clipPath id="clip0_1059775_233">
      <rect fill="#fff" transform="translate(12 12)" width="16" height="16" />
    </clipPath>
  </defs>
</svg>