<svg viewBox="0 0 264 112" fill="#4d5ae5" width="264" height="112" xmlns="http://www.w3.org/2000/svg" xmlns:xlink="http://www.w3.org/1999/xlink">
  <rect stroke="#8e8f99" fill="#f4f4fd" width="263" height="111" rx="3.5" x="0.5" y="0.5" />
  <path d="M163.948 33.0481c-0.126-0.3851-0.459-0.6666-0.861-0.7254l-3.82-0.5557-1.71-3.4624c-0.359-0.7297-1.555-0.7297-1.913 0l-1.71 3.4624-3.821 0.5559c-0.402 0.0586-0.735 0.3392-0.862 0.7253-0.124 0.3862-0.021 0.8107 0.27 1.0934l2.766 2.6956-0.653 3.8059c-0.068 0.4 0.096 0.8043 0.424 1.0433 0.332 0.2411 0.765 0.2709 1.124 0.081L156.6 39.97l3.418 1.7974c0.155 0.0821 0.327 0.1226 0.497 0.1226 0.22 0 0.441-0.0682 0.627-0.2037 0.328-0.2389 0.493-0.6433 0.423-1.0433l-0.652-3.8059 2.766-2.6956c0.289-0.2837 0.394-0.7072 0.269-1.0934zM159.022 35.702c-0.25 0.2443-0.366 0.5984-0.306 0.9441l0.382 2.2282-2.001-1.0517c-0.156-0.0822-0.326-0.1227-0.497-0.1227s-0.34 0.0405-0.497 0.1227l-2.001 1.0517 0.381-2.2282c0.06-0.3457-0.055-0.6987-0.306-0.9441l-1.62-1.5786 2.238-0.3254c0.348-0.0501 0.647-0.2687 0.803-0.5835l1.001-2.0267 1 2.0267c0.156 0.3146 0.456 0.5334 0.804 0.5835l2.237 0.3254z" />
  <path d="M152.267 65.0444h-2.133v2.1334h2.133z" />
  <path d="M152.267 69.3112h-2.133v2.1334h2.133z" />
  <path d="M154.4 67.1778h-2.133v2.1334h2.133z" />
  <path d="M150.134 67.1778H148v2.1334h2.134z" />
  <path d="M144.8 76.778h-2.133v2.1333h2.133z" />
  <path d="M144.8 81.0446h-2.133v2.1335h2.133z" />
  <path d="M146.934 78.9113H144.8v2.1335h2.134z" />
  <path d="M142.667 78.9113h-2.134v2.1335h2.134z" />
  <path d="M132 72.5113h-2.133v2.1334H132z" />
  <path d="M132 76.778h-2.133v2.1333H132z" />
  <path d="M134.133 74.6445H132v2.1334h2.133z" />
  <path d="M129.867 74.6445h-2.134v2.1334h2.134z" />
  <path d="M111.733 36.2439H109.6v2.1334h2.133z" />
  <path d="M111.733 40.5108H109.6v2.1334h2.133z" />
  <path d="M113.866 38.3774h-2.133v2.1334h2.133z" />
  <path d="M109.6 38.3774h-2.134v2.1334h2.134z" />
  <path fill="#2e2f42" d="M149.43 52.3189c-0.575-0.7755-1.419-1.2746-2.377-1.4091-0.962-0.1365-1.912 0.1162-2.68 0.704l-2.503 1.9189-1e-3 11e-4-3.796 2.8342-2.715-1.0816c4.842-2.1728 8.227-7.0166 8.227-12.6402 0-7.646-6.245-13.8669-13.922-13.8669s-13.923 6.2209-13.923 13.8669c0 2.7713 0.829 5.3483 2.241 7.5168l-5.528-0.048c-3e-3 0-6e-3 0-0.01 0-0.017 0-0.031 85e-4-0.047 97e-4-0.105 42e-4-0.209 0.0256-0.31 0.0618-0.026 97e-4-0.052 0.015-0.077 0.0267-0.012 53e-4-0.025 63e-4-0.038 0.0127l-6.466 3.1926c-1e-3 0-2e-3 0-2e-3 1e-3l-3.787 1.821c-0.042 0.0181-0.084 0.0426-0.126 0.0704-1.509 1.0047-2.0236 2.9781-1.197 4.5909 0.441 0.8576 1.191 1.4892 2.112 1.7782 0.355 0.1108 0.718 0.1653 1.079 0.1653 0.579 0 1.153-0.1418 1.678-0.4223l2.776-1.4763 4.528-2.3382 2.714-0.016-10.884 10.8312c-1e-3 11e-4-2e-3 11e-4-3e-3 21e-4l-2.677 2.6667c-0.633 0.6294-0.981 1.4645-0.981 2.3553 0 0.8896 0.348 1.7269 0.981 2.3574 0.649 0.6464 1.504 0.9706 2.358 0.9706 0.856 0 1.709-0.3242 2.361-0.9706l2.628-2.6177 3.482-2.5995 1.801 1.7941-3.523 3.5083c-1e-3 12e-4-2e-3 12e-4-3e-3 22e-4l-2.678 2.6666c-0.632 0.6294-0.98 1.4645-0.98 2.3553 0 0.8896 0.348 1.7269 0.98 2.3574 0.65 0.6464 1.505 0.9707 2.36 0.9707 0.854 0 1.71-0.3243 2.36-0.9707l2.679-2.6667 4.285-4.2666c1e-3-12e-4 1e-3-22e-4 2e-3-33e-4l2.019-2-8e-3-75e-4c0.013-0.0128 0.031-0.0172 0.044-0.0309l10.332-11.3164 6.942 0.9877c0.05 75e-4 0.1 0.0107 0.15 0.0107 0.13 0 0.254-0.0309 0.375-0.0768 0.035-0.0127 0.066-0.0299 0.099-0.0469 0.038-0.0192 0.079-0.0298 0.115-0.0543l6.427-4.2667c0.024-0.016 0.036-0.0417 0.059-0.0587 0.025-0.0202 0.057-0.0287 0.081-0.0512l2.543-2.3819c1.323-1.2398 1.505-3.2707 0.424-4.7235zM104.261 59.5403c-0.347 0.1856-0.74 0.2229-1.117 0.1035-0.373-0.1163-0.676-0.3713-0.853-0.7158-0.322-0.6272-0.136-1.391 0.428-1.8037l2.628-1.2641 0.632 1.8486 0.266 0.7765zM111.255 55.8849l-3.096 1.6-0.511-1.4934-0.367-1.0731 4.053-2.0012zM141.454 42.644c0 1.8368-0.438 3.5692-1.198 5.119l-8.363-3.7984c-0.087-1.1467-0.682-2.1504-1.576-2.7756l2.928-9.7206c4.755 1.5126 8.209 5.9489 8.209 11.1756zM117.876 42.644c0-6.4694 5.289-11.7335 11.789-11.7335 0.506 0 1 0.0426 1.49 0.1045l-2.864 9.5074c-0.038-11e-4-0.075-0.0118-0.114-0.0118-2.065 0-3.745 1.6747-3.745 3.7335 0 2.0586 1.68 3.7334 3.745 3.7334 1.389 0 2.589-0.7669 3.236-1.8892l7.725 3.5095c-2.149 2.8928-5.589 4.7798-9.473 4.7798-6.5 0-11.789-5.2641-11.789-11.7336zM129.789 44.2441c0 0.8821-0.724 1.6-1.612 1.6-0.889 0-1.612-0.7179-1.612-1.6 0-0.8822 0.723-1.6001 1.612-1.6001 0.888 0 1.612 0.7179 1.612 1.6001zM104.93 74.2925c-0.473 0.4683-1.238 0.4673-1.709 11e-4-0.227-0.2272-0.352-0.5268-0.352-0.8458 0-0.3179 0.125-0.6177 0.352-0.8427l1.924-1.9169 1.702 1.695zM111.357 81.7594c-0.472 0.4682-1.238 0.4694-1.709 11e-4-0.228-0.2272-0.352-0.5269-0.352-0.8459 0-0.3179 0.124-0.6176 0.352-0.8426l1.925-1.9179 0.805 0.8011 0.898 0.8939zM118.321 74.8217c-1e-3 1e-3-2e-3 1e-3-3e-3 21e-4l-3.53 3.52-0.806-0.8011-0.898-0.8939 3.527-3.5104c0 0 0 0 0-1e-3 1e-3-11e-4 2e-3-11e-4 3e-3-21e-4 0.08-0.08 0.13-0.176 0.179-0.2709 0.014-0.0278 0.041-0.0513 0.053-0.08 0.033-0.0821 0.038-0.1706 0.051-0.2572 6e-3-0.0491 0.028-0.0948 0.028-0.1451 0-0.0715-0.026-0.1407-0.041-0.2112-0.013-0.064-0.013-0.1292-0.037-0.1909-0.041-0.1003-0.11-0.1888-0.183-0.2753-0.02-0.0235-0.027-0.0533-0.05-0.0757 0 0 0 0-1e-3 0-1e-3-1e-3-1e-3-33e-4-2e-3-43e-4l-3.214-3.2c-0.034-0.0341-0.078-0.048-0.116-0.0768-0.057-0.0437-0.111-0.0842-0.174-0.1152-0.061-0.0299-0.123-0.048-0.187-0.0651-0.068-0.0193-0.134-0.0342-0.206-0.0395-0.065-43e-4-0.126 21e-4-0.191 96e-4-0.071 85e-4-0.138 0.0181-0.208 0.0405-0.067 0.0214-0.126 0.0544-0.188 0.0896-0.04 0.0224-0.085 0.0299-0.122 0.0576l-3.547 2.6476-1.801-1.7942 4.798-4.7723 8.721 8.5773zM131.958 60.7883c-0.03-42e-4-0.059 75e-4-0.09 54e-4-0.078-43e-4-0.153 11e-4-0.231 0.0139-0.06 0.0106-0.118 0.0223-0.176 0.0426-0.068 0.0235-0.13 0.0555-0.193 0.0939-0.06 0.0362-0.114 0.0746-0.166 0.1226-0.026 0.0224-0.057 0.0331-0.08 0.0586l-9.397 10.2914-8.656-8.5132 5.666-5.6364c0.418-0.416 0.42-1.0912 4e-3-1.5094-0.21-0.2101-0.487-0.3136-0.763-0.3125v-1e-3l-4.437 0.0267 0.055-3.215 6.208 0.0534c2.53 2.5878 6.059 4.2017 9.963 4.2017 0.875 0 1.728-0.0906 2.559-0.2454 0.08 0.064 0.159 0.1292 0.259 0.1697l4.819 1.92 0.305 1.5168 0.357 1.7706zM140.041 61.1446l-0.627-3.1158 2.893-2.1601 0.758 1.0048 1.136 1.5083zM147.548 55.4826l-1.676 1.5702-1.862-2.4726 1.663-1.2746c0.31-0.2389 0.701-0.336 1.085-0.2859 0.387 0.0544 0.728 0.256 0.961 0.5685 0.433 0.5835 0.359 1.3974-0.171 1.8944z" />
  <path fill="#2e2f42" d="M127.204 61.0881l-4.286-4.2667c-0.415-0.4149-1.089-0.4149-1.505 0l-4.285 4.2667c-0.2 0.2016-0.313 0.4725-0.313 0.7562 0 0.2838 0.112 0.5558 0.313 0.7563l4.285 4.2667c0.208 0.2069 0.481 0.3104 0.753 0.3104s0.545-0.1035 0.752-0.3104l4.286-4.2667c0.201-0.2005 0.315-0.4725 0.315-0.7563 0-0.2837-0.113-0.5557-0.315-0.7562zM122.166 64.606l-2.773-2.7617 2.773-2.7616 2.775 2.7616z" />
  <path fill="#2e2f42" d="M134.329 34.1415l-0.516 2.0716c0.142 0.0352 3.476 0.9035 3.476 4.2977h2.133c0-4.0343-3.331-5.9309-5.093-6.3693z" />
  <path fill="#2e2f42" d="M139.422 42.644h-2.133v2.1335h2.133z" />
</svg>